<svg xmlns="http://www.w3.org/2000/svg" width="980" height="500" viewBox="0 0 980 500">

    <defs>
      <marker id="arrow" markerWidth="10" markerHeight="10" refX="8" refY="3" orient="auto" markerUnits="strokeWidth">
        <path d="M0,0 L0,6 L9,3 z" fill="#475569" />
      </marker>
    </defs>
    

    <style>
      text { font-family: Arial, "Microsoft YaHei", sans-serif; fill: #111827; }
      .title { font-size: 22px; font-weight: 700; }
      .subtitle { font-size: 13px; fill: #4b5563; }
      .box { fill: #f8fafc; stroke: #334155; stroke-width: 1.4; rx: 7; }
      .accent { fill: #eff6ff; stroke: #2563eb; stroke-width: 1.5; rx: 7; }
      .warn { fill: #fff7ed; stroke: #f97316; stroke-width: 1.5; rx: 7; }
      .arrow { stroke: #475569; stroke-width: 1.7; fill: none; marker-end: url(#arrow); }
      .axis { stroke: #94a3b8; stroke-width: 1; }
      .grid { stroke: #e5e7eb; stroke-width: 1; }
      .russia { fill: #ef4444; stroke: #b91c1c; }
      .ukraine { fill: #2563eb; stroke: #1d4ed8; }
      .ci { stroke: #111827; stroke-width: 2.2; }
      .tick { stroke: #111827; stroke-width: 2; }
      .note { font-size: 12px; fill: #6b7280; }
    </style>
    
<text class="title" x="490" y="34" text-anchor="middle">装备类型分层：俄/乌损失比</text>
<text class="subtitle" x="490" y="58" text-anchor="middle">比值大于 1 表示俄方损失更多；小于 1 表示乌方损失更多</text>
<line class="grid" x1="300.0" y1="70" x2="300.0" y2="450" />
<text class="note" x="300.0" y="475" text-anchor="middle">0</text>
<line class="grid" x1="424.0" y1="70" x2="424.0" y2="450" />
<text class="note" x="424.0" y="475" text-anchor="middle">1</text>
<line class="grid" x1="548.0" y1="70" x2="548.0" y2="450" />
<text class="note" x="548.0" y="475" text-anchor="middle">2</text>
<line class="grid" x1="672.0" y1="70" x2="672.0" y2="450" />
<text class="note" x="672.0" y="475" text-anchor="middle">3</text>
<line class="grid" x1="796.0" y1="70" x2="796.0" y2="450" />
<text class="note" x="796.0" y="475" text-anchor="middle">4</text>
<line class="grid" x1="920.0" y1="70" x2="920.0" y2="450" />
<text class="note" x="920.0" y="475" text-anchor="middle">5</text>
<line stroke="#111827" stroke-dasharray="4 4" x1="424.0" y1="70" x2="424.0" y2="450" />
<text x="286" y="93" font-size="13" text-anchor="end">Radars And Communications Equipment</text>
<line stroke="#2563eb" stroke-width="9" x1="424.0" y1="88" x2="300.0" y2="88" />
<circle fill="#2563eb" cx="300.0" cy="88" r="6" />
<text x="290.0" y="93" font-size="12" text-anchor="end">0.00</text>
<text x="286" y="129" font-size="13" text-anchor="end">Mine-Resistant Ambush Protected (MRAP) Vehicles</text>
<line stroke="#2563eb" stroke-width="9" x1="424.0" y1="124" x2="308.3" y2="124" />
<circle fill="#2563eb" cx="308.3" cy="124" r="6" />
<text x="298.3" y="129" font-size="12" text-anchor="end">0.07</text>
<text x="286" y="165" font-size="13" text-anchor="end">Towed Artillery</text>
<line stroke="#ef4444" stroke-width="9" x1="424.0" y1="160" x2="548.4" y2="160" />
<circle fill="#ef4444" cx="548.4" cy="160" r="6" />
<text x="558.4" y="165" font-size="12" text-anchor="start">2.00</text>
<text x="286" y="201" font-size="13" text-anchor="end">Surface-To-Air Missile Systems</text>
<line stroke="#ef4444" stroke-width="9" x1="424.0" y1="196" x2="594.0" y2="196" />
<circle fill="#ef4444" cx="594.0" cy="196" r="6" />
<text x="604.0" y="201" font-size="12" text-anchor="start">2.37</text>
<text x="286" y="237" font-size="13" text-anchor="end">Self-Propelled Anti-Tank Missile Systems</text>
<line stroke="#ef4444" stroke-width="9" x1="424.0" y1="232" x2="606.7" y2="232" />
<circle fill="#ef4444" cx="606.7" cy="232" r="6" />
<text x="616.7" y="237" font-size="12" text-anchor="start">2.47</text>
<text x="286" y="273" font-size="13" text-anchor="end">Engineering Vehicles And Equipment</text>
<line stroke="#ef4444" stroke-width="9" x1="424.0" y1="268" x2="609.6" y2="268" />
<circle fill="#ef4444" cx="609.6" cy="268" r="6" />
<text x="619.6" y="273" font-size="12" text-anchor="start">2.50</text>
<text x="286" y="309" font-size="13" text-anchor="end">Tanks</text>
<line stroke="#ef4444" stroke-width="9" x1="424.0" y1="304" x2="682.3" y2="304" />
<circle fill="#ef4444" cx="682.3" cy="304" r="6" />
<text x="692.3" y="309" font-size="12" text-anchor="start">3.08</text>
<text x="286" y="345" font-size="13" text-anchor="end">Trucks and similar vehicles</text>
<line stroke="#ef4444" stroke-width="9" x1="424.0" y1="340" x2="712.2" y2="340" />
<circle fill="#ef4444" cx="712.2" cy="340" r="6" />
<text x="722.2" y="345" font-size="12" text-anchor="start">3.32</text>
<text x="286" y="381" font-size="13" text-anchor="end">Infantry Fighting Vehicles</text>
<line stroke="#ef4444" stroke-width="9" x1="424.0" y1="376" x2="803.3" y2="376" />
<circle fill="#ef4444" cx="803.3" cy="376" r="6" />
<text x="813.3" y="381" font-size="12" text-anchor="start">4.06</text>
<text x="286" y="417" font-size="13" text-anchor="end">Armoured Fighting Vehicles</text>
<line stroke="#ef4444" stroke-width="9" x1="424.0" y1="412" x2="857.4" y2="412" />
<circle fill="#ef4444" cx="857.4" cy="412" r="6" />
<text x="867.4" y="417" font-size="12" text-anchor="start">4.50</text>
<text class="note" x="490" y="482" text-anchor="middle">截取偏离 1 最大的 10 个装备类别；完整表见 oryx_category_comparison.csv。</text>
</svg>
