<svg xmlns="http://www.w3.org/2000/svg" width="1000" height="420" viewBox="0 0 1000 420">
<style>text{font-family:Arial, sans-serif;font-size:13px}.title{font-size:20px;font-weight:bold}.axis{stroke:#9ca3af}.line{fill:none;stroke-width:2}</style>
<text class="title" x="500.0" y="28" text-anchor="middle">Weekly Verified Equipment Losses</text>
<line class="axis" x1="60" y1="370" x2="970" y2="370" />
<line class="axis" x1="60" y1="50" x2="60" y2="370" />
<text x="60" y="400" text-anchor="middle">2022-02-27</text>
<text x="970" y="400" text-anchor="end">2026-06-14</text>
<text x="52" y="55" text-anchor="end">746</text>
<polyline class="line" stroke="#ef4444" points="60.0,233.6 64.1,119.1 68.1,243.5 72.2,184.7 76.2,237.0 80.3,50.0 84.4,211.7 88.4,289.4 92.5,315.1 96.6,289.8 100.6,283.8 104.7,274.8 108.8,326.7 112.8,348.1 116.9,312.9 120.9,320.7 125.0,325.0 129.1,335.3 133.1,315.1 137.2,328.0 141.2,343.8 145.3,342.5 149.4,331.8 153.4,343.0 157.5,330.5 161.6,351.1 165.6,333.5 169.7,312.9 173.8,210.0 177.8,195.8 181.9,294.5 185.9,261.9 190.0,246.0 194.1,303.5 198.1,313.4 202.2,313.4 206.2,318.1 210.3,271.8 214.4,315.5 218.4,341.7 222.5,253.8 226.6,338.7 230.6,350.7 234.7,354.1 238.8,331.8 242.8,346.8 246.9,344.3 250.9,348.6 255.0,341.7 259.1,340.4 263.1,321.5 267.2,340.4 271.2,337.0 275.3,309.1 279.4,345.5 283.4,335.7 287.5,333.1 291.6,342.1 295.6,347.7 299.7,351.6 303.8,351.1 307.8,338.7 311.9,345.5 315.9,346.0 320.0,339.1 324.1,338.7 328.1,333.1 332.2,338.3 336.2,328.0 340.3,331.4 344.4,336.1 348.4,330.5 352.5,332.7 356.6,325.0 360.6,330.1 364.7,330.5 368.8,339.1 372.8,332.7 376.9,332.7 380.9,313.8 385.0,325.0 389.1,347.7 393.1,338.3 397.2,328.0 401.2,339.1 405.3,305.2 409.4,307.8 413.4,334.4 417.5,312.1 421.6,334.0 425.6,337.4 429.7,352.8 433.8,333.5 437.8,334.4 441.9,340.0 445.9,331.0 450.0,320.2 454.1,334.8 458.1,335.3 462.2,325.0 466.2,332.3 470.3,328.4 474.4,339.1 478.4,323.2 482.5,312.9 486.6,296.6 490.6,319.0 494.7,317.2 498.8,321.5 502.8,303.5 506.9,290.6 510.9,309.1 515.0,326.7 519.1,337.8 523.1,325.4 527.2,315.5 531.2,316.0 535.3,311.7 539.4,303.9 543.4,299.2 547.5,308.7 551.6,317.2 555.6,324.5 559.7,326.7 563.8,325.8 567.8,325.8 571.9,315.1 575.9,328.8 580.0,320.7 584.1,309.9 588.1,322.4 592.2,301.8 596.2,322.0 600.3,328.4 604.4,320.2 608.4,301.4 612.5,306.5 616.6,330.1 620.6,303.9 624.7,318.1 628.8,298.8 632.8,315.1 636.9,307.4 640.9,324.5 645.0,301.4 649.1,324.1 653.1,338.3 657.2,342.1 661.2,340.4 665.3,327.1 669.4,337.4 673.4,334.4 677.5,332.7 681.6,336.5 685.6,335.3 689.7,322.8 693.8,328.4 697.8,324.5 701.9,338.3 705.9,339.1 710.0,324.1 714.1,320.7 718.1,313.8 722.2,311.7 726.2,329.7 730.3,341.3 734.4,331.0 738.4,340.0 742.5,343.0 746.6,340.0 750.6,346.4 754.7,348.1 758.8,349.4 762.8,342.5 766.9,354.1 770.9,353.3 775.0,346.8 779.1,350.3 783.1,349.4 787.2,356.7 791.2,349.0 795.3,340.8 799.4,349.4 803.4,333.1 807.5,347.7 811.6,350.3 815.6,349.0 819.7,352.0 823.8,355.8 827.8,350.3 831.9,344.7 835.9,343.0 840.0,351.6 844.1,351.1 848.1,350.7 852.2,355.8 856.2,352.8 860.3,352.4 864.4,359.3 868.4,342.5 872.5,340.4 876.6,349.4 880.6,359.7 884.7,358.4 888.8,359.3 892.8,362.3 896.9,361.4 900.9,359.7 905.0,358.8 909.1,358.4 913.1,358.4 917.2,348.6 921.2,348.6 925.3,353.7 929.4,359.3 933.4,362.7 937.5,355.0 941.6,362.7 945.6,360.6 949.7,357.1 953.8,360.1 957.8,348.1 961.9,352.8 965.9,361.8 970.0,364.4" />
<rect x="800" y="50" width="14" height="14" fill="#ef4444" />
<text x="820" y="62">Russia</text>
</svg>